<svg xmlns="http://www.w3.org/2000/svg">
  
  <!-- General Icons -->

  <!-- Arrow - Down -->
  <symbol id="arrow-down" viewBox="0 0 14 14">
    <title>Arrow - Down</title>
    <path fill="var(--icon-fill_primary)" d="M13.33 6.67l-1.17-1.18-4.66 4.65V0H5.83v10.14L1.18 5.48 0 6.67l6.67 6.66z" fill-rule="evenodd"/>
  </symbol>

  <!-- Shopping Cart -->
  <symbol id="cart" viewBox="0 0 15 15">
    <title>Shopping Cart</title>
    <path fill="var(--icon-fill_primary)" d="M4.5 12a1.5 1.5 0 1 0 .01 3 1.5 1.5 0 0 0-.01-3zM0 0v1.5h1.5l2.7 5.7-1.01 1.83c-.12.21-.19.46-.19.72 0 .82.67 1.5 1.5 1.5h9v-1.5H4.82a.19.19 0 0 1-.2-.19l.03-.09.67-1.22h5.6c.55 0 1.05-.3 1.3-.77l2.69-4.87a.75.75 0 0 0-.66-1.11H3.15L2.46 0H0zm12 12a1.5 1.5 0 1 0 .01 3 1.5 1.5 0 0 0-.01-3z"/>
  </symbol>

  <!-- Close -->
  <symbol id="close" viewBox="0 0 20 20">
    <title>Close</title>
    <path fill="var(--icon-fill_primary)" d="M2 0l18 18-2 2L0 2z"/>
    <path fill="var(--icon-fill_primary)" d="M0 18L18 0l2 2L2 20z"/>
  </symbol>

  <!-- Close -->
  <symbol id="close2" viewBox="0 0 14 14">
    <title>Close 2</title>
    <path fill="#fff" d="M7 14A7 7 0 1 0 7 0a7 7 0 0 0 0 14z"/>
    <path fill="var(--icon-fill_primary)" stroke="var(--icon-fill_primary)" stroke-width=".5" d="M9.63 4.9l-.53-.53L7 6.47l-2.1-2.1-.53.53L6.47 7l-2.1 2.1.53.53L7 7.53l2.1 2.1.53-.53L7.53 7l2.1-2.1z"/>
  </symbol>

  <!-- Key -->
  <symbol id="key" viewBox="0 0 17 9">
    <title>Key</title>
    <path fill="var(--icon-fill_primary)" d="M8.605 2.955A4.425 4.425 0 0 0 4.432 0 4.435 4.435 0 0 0 0 4.432a4.435 4.435 0 0 0 4.432 4.432 4.425 4.425 0 0 0 4.173-2.955h3.213v2.955h2.955V5.909h1.477V2.955H8.605zM4.432 5.909a1.482 1.482 0 0 1-1.477-1.477c0-.813.664-1.477 1.477-1.477.812 0 1.477.664 1.477 1.477 0 .812-.665 1.477-1.477 1.477z"/>
  </symbol>

  <!-- Menu (Hamburger) -->
  <symbol id="menu" viewBox="0 0 30 20">
    <title>Menu</title>
    <path fill="var(--icon-fill_primary)" d="M0 0h30v3H0zM0 8h30v3H0zM0 16h30v3H0z"/>
  </symbol>

  <!-- Search -->
  <symbol id="search" viewBox="0 0 17 17">
    <title>Search</title>
    <path fill="var(--icon-fill_primary)" stroke="var(--icon-fill_primary)" d="M11.625 10.35h-.671l-.239-.23a5.5 5.5 0 0 0 1.335-3.595 5.525 5.525 0 1 0-5.525 5.525 5.5 5.5 0 0 0 3.595-1.335l.23.239v.671l4.25 4.242 1.267-1.267-4.242-4.25zm-5.1 0A3.82 3.82 0 0 1 2.7 6.525 3.82 3.82 0 0 1 6.525 2.7a3.82 3.82 0 0 1 3.825 3.825 3.82 3.82 0 0 1-3.825 3.825z"/>
  </symbol>

  <!-- Sign Up -->
  <symbol id="signup" viewBox="0 0 19 14">
    <title>Sign Up</title>
    <path fill="var(--icon-fill_primary)" d="M11.508 6.576a3.287 3.287 0 1 0 0-6.576 3.287 3.287 0 1 0 0 6.576zM4.11 4.932V2.466H2.466v2.466H0v1.644h2.466v2.466H4.11V6.576h2.466V4.932H4.11zm7.398 3.288c-2.195 0-6.576 1.101-6.576 3.288v1.644h13.151v-1.644c0-2.187-4.38-3.288-6.575-3.288z"/>
  </symbol>
  
  
  <!-- Social -->

  <!-- CodePen -->
  <symbol id="codepen" viewBox="0 0 26 26">
    <title>CodePen</title>
    <path fill="var(--icon-fill_primary)" d="M25.32 9.37v-.04l-.02-.1-.02-.05-.03-.08-.02-.05a.85.85 0 0 0-.04-.07c0-.02-.02-.03-.03-.05a1 1 0 0 0-.13-.17l-.04-.04a1.24 1.24 0 0 0-.06-.05l-.05-.04-.02-.01L13.6.98a1.05 1.05 0 0 0-1.18 0L1.14 8.62l-.02.01a1 1 0 0 0-.1.09l-.05.04a.94.94 0 0 0-.16.22 1.02 1.02 0 0 0-.09.2l-.02.06-.02.09v.04l-.01.14v7.79l.01.05.02.1.02.04c0 .03.02.06.03.08l.02.05c.03.07.068.137.11.2a.73.73 0 0 0 .1.1l.03.04a.97.97 0 0 0 .11.09l.02.01 11.27 7.64a1.05 1.05 0 0 0 1.18 0l11.27-7.64.02-.01.05-.04.06-.05.04-.04a1.03 1.03 0 0 0 .13-.17l.03-.05a.99.99 0 0 0 .04-.08l.02-.05.03-.08.02-.05.02-.09v-.05l.01-.14V9.37h-.01zM14.06 3.9l8.3 5.62-3.7 2.53-4.6-3.13V3.9zm-2.12 0v5l-4.6 3.13-3.7-2.53 8.3-5.62v.02zm-9.15 7.64l2.65 1.8-2.65 1.8v-3.6zm9.15 11.25l-8.3-5.63 3.7-2.52 4.6 3.12v5.03zm1.06-6.9l-3.75-2.55L13 10.78l3.75 2.55L13 15.88v.01zm1.06 6.9v-5.03l4.6-3.12 3.7 2.52-8.3 5.63zm9.15-7.64l-2.65-1.8 2.65-1.81v3.61z"/>
  </symbol>

  <!-- Facebook -->
  <symbol id="facebook" viewBox="0 0 14 27">
    <title>Facebook</title>
    <path fill="var(--icon-fill_primary)" d="M4.067 27V14.924H0v-4.799h4.067V6.344C4.067 2.236 6.592 0 10.277 0 12.043 0 13.56.132 14 .19v4.292h-2.556c-2.005 0-2.392.95-2.392 2.337v3.306h4.524l-.62 4.799H9.051V27"/>
  </symbol>

  <!-- Github -->
  <symbol id="github" viewBox="0 0 28 22">
    <title>Github</title>
    <path fill="var(--icon-fill_primary)" d="M26.72 15.48a8.28 8.28 0 0 1-.44 1.4l-.08.16c-1.08 2.48-3.48 4.08-8.44 4.6h-7.04c-4.64-.52-7.28-2.12-8.6-4.56l-.08-.16c-.12-.24-.24-.52-.36-.8-.08-.12-.08-.08-.08-.2a13.34 13.34 0 0 1-.68-4.56c0-2.24.8-4.08 2.16-5.52-.2-.52-.92-2.64.2-5.44 0 0 1.72-.56 5.68 2.12a20.3 20.3 0 0 1 9.84-.12C21.56.56 23.2.32 23.88.32c.28 0 .4.04.4.04.96 2.4.6 4.24.36 5.08a8.07 8.07 0 0 1 2.4 5.88c.04 1.76-.08 3.28-.32 4.16zm-5.48-5.2c-.72-.76-1.72-.96-2.88-.96-1.24 0-2.64.24-4.12.24-2.92 0-5.48-.84-7 .76a4.86 4.86 0 0 0-1.44 3.4c0 5.24 3.8 6.04 8.48 6.04 4.68 0 8.48-.16 8.48-6.04a5.51 5.51 0 0 0-1.52-3.44zm-11.6 6.64c-.96 0-1.76-1.32-1.76-2.92 0-1.64.8-2.92 1.76-2.92S11.4 12.4 11.4 14c0 1.6-.8 2.92-1.76 2.92zm9.44 0c-.96 0-1.76-1.32-1.76-2.92 0-1.64.8-2.92 1.76-2.92s1.76 1.32 1.76 2.92c0 1.6-.76 2.92-1.76 2.92z"/>
  </symbol>

  <!-- LinkedIn -->
  <symbol id="linkedin" viewBox="0 0 19 19">
    <title>LinkedIn</title>
    <path fill="var(--icon-fill_primary)" d="M4 19H1V6h3v13zM2 4C.896 4 0 3.09 0 1.99 0 .893.896 0 2 0s2 .892 2 1.99C4 3.09 3.104 4 2 4zm16.996 15h-3.841v-6.174c0-1.47-.03-3.358-2.002-3.358-2.001 0-2.308 1.599-2.308 3.252V19H7V6.318h3.692v1.73h.054C11.26 7.052 12.516 6 14.388 6 18.283 6 19 8.625 19 12.034V19h-.004z"/>
  </symbol>

  <!-- Twitter -->
  <symbol id="twitter" viewBox="0 0 25 20">
    <title>Twitter</title>
    <path fill="var(--icon-fill_primary)" d="M22.49 4.985c.164 5.268-2.56 10.223-7.155 13.017a14.244 14.244 0 0 1-7.807 1.988c-2.974 0-5.298-.903-7.156-2.079-.186 0-.28-.09-.372-.27 3.253.36 5.762-.634 7.528-1.99-1.301 0-2.324-.542-3.067-1.175a5.063 5.063 0 0 1-1.673-2.35c.65.09 1.673 0 2.23-.09-1.208-.272-2.137-.904-2.788-1.808-.743-.723-1.208-1.808-1.208-3.255h.186c.558.362 1.301.543 2.045.543C1.65 6.41.823 4.524 1.115 2.634a4.638 4.638 0 0 1 .65-1.807l.93.994c2.417 2.26 5.39 3.977 9.666 4.248-.558-2.621.836-4.52 2.509-5.423 2.043-1.125 4.61-.753 6.227.904a10.92 10.92 0 0 0 3.16-1.266 4.909 4.909 0 0 1-2.231 2.712c1.115 0 2.045-.362 2.974-.723a10.045 10.045 0 0 1-2.51 2.712z"/>
  </symbol>

  
  <!-- ZingChart Specific -->

  <!-- ZC Logo -->
  <symbol id="zcLogo" viewBox="0 0 145.13 47.57">
    <title>ZingChart Logo</title>
    <path fill="var(--icon-fill_primary)" d="M0 37.55l11-12.06H.66v-4.8h17.52V25L6.93 37.31h11.64v4.8H0zM20.58 26.54h5.1v15.57h-5.1zM27.91 26.54h5v2.13h.06a5.88 5.88 0 0 1 4.89-2.58c5.19 0 5.61 3.78 5.61 6v10h-5.1v-7.51c0-2.13.24-4.29-2.55-4.29-1.92 0-2.76 1.62-2.76 3.33v8.49h-5.1zM60.86 40.22c0 2.55-.48 7.35-7.77 7.35-3.63 0-7.05-.81-7.65-5h5.1a1.67 1.67 0 0 0 .87 1.35 4.08 4.08 0 0 0 1.86.33c2.43 0 2.67-1.71 2.67-3.63v-1.45h-.06a4.93 4.93 0 0 1-4.14 2.28c-4.71 0-6.84-3.36-6.84-7.74 0-4.14 2.43-7.62 6.84-7.62a4.5 4.5 0 0 1 4.17 2.4H56v-1.95h4.89zM53 30c-2.25 0-3 2-3 3.9s.84 3.66 2.94 3.66S56 35.87 56 33.92 55.25 30 53 30z"/>
    <path fill="var(--icon-fill_secondary)" d="M79.2 27.5a5.12 5.12 0 0 0-5.34-4.26c-4.59 0-6.51 4.05-6.51 8.16s1.92 8.16 6.51 8.16c3.33 0 5.16-2.49 5.46-5.61H83a8.78 8.78 0 0 1-9.12 8.67c-6.42 0-10.26-5.1-10.26-11.22s3.84-11.22 10.26-11.22c4.83 0 8.64 2.7 9.09 7.32zM84.85 20.69h3.42v7.95h.06A5.43 5.43 0 0 1 93 26.18c3.36 0 5.49 1.8 5.49 5.28v10.65H95v-9.75c-.06-2.43-1-3.48-3-3.48A3.78 3.78 0 0 0 88.27 33v9.15h-3.42zM114 38.66c0 .84.18 1.17.81 1.17a4.76 4.76 0 0 0 .84-.06v2.37a8.6 8.6 0 0 1-2.16.39c-1.38 0-2.37-.48-2.64-1.89a8 8 0 0 1-5.37 1.89c-2.79 0-5.31-1.5-5.31-4.53 0-3.87 3.09-4.5 6-4.83 2.46-.45 4.65-.18 4.65-2.19 0-1.77-1.83-2.1-3.21-2.1-1.92 0-3.27.78-3.42 2.46h-3.42c.24-4 3.63-5.16 7-5.16 3 0 6.21 1.23 6.21 4.5zm-3.42-4.32c-1 .69-2.7.66-4.2.93s-2.79.78-2.79 2.58c0 1.53 2 2 3.15 2 1.5 0 3.84-.78 3.84-2.94zM117.27 26.6h3.21v3h.06a5 5 0 0 1 4.53-3.42 8.06 8.06 0 0 1 1.29.09v3.3a12.26 12.26 0 0 0-1.47-.15c-2.34 0-4.2 1.89-4.2 5.31v7.38h-3.42zM127.37 26.6h2.58v-4.65h3.42v4.65h3.09v2.55h-3.09v8.28c0 1.41.12 2.13 1.65 2.13a5.88 5.88 0 0 0 1.44-.12v2.64c-.75.06-1.47.18-2.22.18-3.57 0-4.23-1.38-4.29-4v-9.11h-2.58z"/>
    <path fill="var(--icon-fill_secondary)" d="M138 22.18v-.42h3v.42h-1.25v3.32h-.5v-3.32zM142.08 21.76l1.18 3.15 1.18-3.15h.68v3.74h-.47v-3.11l-1.17 3.11h-.42l-1.17-3.11v3.11h-.47v-3.74z"/>
    <path fill="var(--icon-fill_alt1)" d="M11.76 2.84h2.82V0H17v2.84h2.84v2.38H17V8h-2.42V5.22h-2.82z"/>
    <path fill="var(--icon-fill_alt2)" d="M28.23 7.7h2.42V5.26h2V7.7h2.43v2h-2.39v2.42h-2V9.74h-2.46z"/>
    <path fill="var(--icon-fill_secondary)" d="M20 18.73h2.24v-2.25h1.89v2.25h2.25v1.89h-2.24v2.24h-1.89v-2.24H20z"/>
  </symbol>

  <!-- ZG Logo -->
  <symbol id="zgLogo" viewBox="0 0 200 43">
    <title>ZingGrid Logo</title>
    <path fill="var(--icon-fill_primary)" d="M0 29l14.6-16H1V6.6h23.3v5.7l-15 16.4h15.6v6.4H0v-6zm27.4-14.6h6.8V35h-6.8V14.4zm9.8 0h6.6v2.8h.1c1.2-2.1 4-3.4 6.5-3.4 7 0 7.5 5 7.5 8v13.3h-6.8v-10c0-2.8.3-5.7-3.4-5.7-2.6 0-3.7 2.1-3.7 4.4v11.3h-6.8V14.4zM70.6 19c-3 0-4 2.6-4 5.2 0 2.4 1.2 4.9 4 4.9 2.9 0 4.1-2.3 4.1-4.9 0-2.6-1-5.2-4-5.2m10.5 13.6c0 3.4-.7 9.8-10.4 9.8-4.8 0-9.4-1-10.2-6.6h6.8c.2.9.5 1.5 1.2 1.8.6.3 1.4.4 2.4.4 3.3 0 3.6-2.3 3.6-4.8v-2c-1.3 2-3.4 3-5.6 3-6.3 0-9.1-4.4-9.1-10.3 0-5.5 3.2-10.1 9-10.1a6 6 0 0 1 5.7 3.2v-2.6h6.6v18.2z"/>
    <path fill="#1fbaed" d="M110.8 35.1h-3.2l-.7-3.3a11.9 11.9 0 0 1-4 3.1c-1.4.6-2.9 1-4.6 1-2.2 0-4-.5-5.8-1.3-1.7-.8-3.1-1.8-4.3-3.2-1.1-1.3-2-3-2.7-4.7a17.6 17.6 0 0 1 2.7-16.4 12.8 12.8 0 0 1 10-4.4c1.6 0 3 .2 4.5.6 1.4.4 2.6 1 3.7 1.9a10.2 10.2 0 0 1 4.1 7.3h-4.9a6.3 6.3 0 0 0-4.7-5.4 9.3 9.3 0 0 0-6.6.6c-1 .6-2 1.4-2.7 2.5-.7 1-1.2 2.1-1.5 3.5a16.1 16.1 0 0 0 0 8 11 11 0 0 0 1.5 3.5 7.7 7.7 0 0 0 6.7 3.3c1.3 0 2.4-.1 3.4-.5 1-.3 1.8-.8 2.5-1.5s1.2-1.5 1.5-2.5c.4-1 .5-2.1.6-3.3h-7.6v-3.8h12.1v15zm2.5-20.6h4.3v4c.2-.6.4-1.2.8-1.7a7.6 7.6 0 0 1 3.2-2.5c.7-.3 1.4-.4 2-.4a10.4 10.4 0 0 1 1.8.1v4.4a23.7 23.7 0 0 0-2-.2c-.7 0-1.5.2-2.1.5a5 5 0 0 0-1.8 1.3c-.5.6-1 1.4-1.2 2.3-.3.8-.5 1.8-.5 3v9.8h-4.5V14.5zm14.2 0h4.6V35h-4.6V14.5zm0-8h4.6V11h-4.6V6.6zM138.6 25c0 .9.1 1.8.4 2.6.2.9.5 1.6 1 2.3a5.2 5.2 0 0 0 4.3 2.2 5.1 5.1 0 0 0 4.5-2.3 10.5 10.5 0 0 0 1.4-5c0-2.3-.6-4.1-1.6-5.4a5 5 0 0 0-4.2-2A5.2 5.2 0 0 0 140 20a7 7 0 0 0-1 2.4l-.3 2.7m16 10.1h-4.4v-2.8c-.7 1.2-1.6 2.1-2.7 2.6-1.2.5-2.4.8-3.8.8-1.6 0-3-.3-4.2-.9a8.5 8.5 0 0 1-3-2.3 10 10 0 0 1-1.8-3.5c-.4-1.4-.6-2.8-.6-4.3 0-2 .2-3.5.7-4.9a9.7 9.7 0 0 1 2-3.3c.9-1 1.8-1.6 3-2a9.1 9.1 0 0 1 5.2-.4 8.6 8.6 0 0 1 3.6 1.6c.5.4 1 .9 1.3 1.4V6.6h4.6V35z"/>
    <path fill="var(--icon-fill_primary)" d="M27.4 6.6h6.8v5.6h-6.8V6.6zm144.9.8h-6.9V.5h6.9v6.9zm13.7 0h-9.6V.5h9.6v6.9zm13.6 0h-9.5V.5h9.5v6.9zM172.3 21h-6.9v-9.5h6.9V21z"/>
    <path fill="#1fbaed" d="M186 21h-9.6v-9.5h9.6V21zm13.6 0h-9.5v-9.5h9.5V21z"/>
    <path fill="var(--icon-fill_primary)" d="M172.3 34.7h-6.9v-9.5h6.9v9.5z"/>
    <path fill="#1fbaed" d="M186 34.7h-9.6v-9.5h9.6v9.5zm13.6 0h-9.5v-9.5h9.5v9.5z"/>
  </symbol>

  <!-- ZS Logo -->
  <symbol id="zsLogo" viewBox="0 0 146 43">
    <title>ZingGrid Logo</title>
    <path fill="var(--icon-fill_primary)" d="M52 25.892l8.83-9.582h-8.245V12.5h14.093v3.435l-9.035 9.784H67V29.5H52.03v-3.608z"/>
    <path fill="var(--icon-fill_primary)" d="M72 15.594h-4V12.5h4v3.094zm-4 1.56h4V29.5h-4V17.155z"/>
    <path fill="var(--icon-fill_primary)" d="M74 16.826h3.84v1.747c.875-1.303 2.287-2.073 3.812-2.073 4.037 0 4.348 3.08 4.348 4.916v8.054h-3.925v-6.16c0-1.746.198-3.493-1.976-3.493-1.497 0-2.146 1.303-2.146 2.724V29.5h-3.925L74 16.826z"/>
    <path fill="var(--icon-fill_primary)" d="M100.94 27.68c0 2.017-.383 5.82-6.322 5.82-2.954 0-5.732-.634-6.204-3.947h4.106c.03.461.296.836.71 1.066a3.4 3.4 0 0 0 1.506.26c1.98 0 2.187-1.355 2.187-2.881v-1.153c-.739 1.124-2.01 1.786-3.368 1.815-3.812 0-5.555-2.65-5.555-6.136 0-3.284 1.98-6.02 5.555-6.02 1.418-.059 2.747.69 3.397 1.9h.06V16.82H101l-.06 10.86zm-6.41-8.094c-1.832 0-2.423 1.584-2.423 3.082 0 1.527.68 2.91 2.393 2.91 1.714 0 2.511-1.325 2.511-2.881 0-1.556-.62-3.111-2.481-3.111z"/>
    <path fill="var(--icon-fill_secondary)" d="M107.004 23.383c0 2.651 1.954 3.67 4.346 3.67 2.654 0 3.617-1.281 3.617-2.592a2.02 2.02 0 0 0-1.43-2.126c-1.195-.466-2.77-.757-5.075-1.427-2.945-.787-3.82-2.563-3.82-4.34 0-3.437 3.179-5.068 6.3-5.068 3.587 0 6.591 1.893 6.591 5.476H114.5c-.146-2.214-1.633-3.03-3.704-3.03-1.4 0-3.15.496-3.15 2.243 0 1.194.817 1.864 2.041 2.214.263.087 4.055 1.048 4.959 1.34A4.52 4.52 0 0 1 118 24.112c0 3.844-3.412 5.388-6.825 5.388-3.938 0-7.087-1.864-7.175-6.117h3.004z"/>
    <path fill="var(--icon-fill_secondary)" d="M119 23c0-3.756 2.2-6.5 6.014-6.5S131 19.216 131 23s-2.172 6.5-5.986 6.5C121.2 29.5 119 26.784 119 23zm9.383 0c0-2.138-1.03-4.333-3.37-4.333-2.338 0-3.368 2.195-3.368 4.333 0 2.138 1.03 4.362 3.369 4.362 2.339 0 3.369-2.253 3.369-4.362z"/>
    <path fill="var(--icon-fill_secondary)" d="M132 17.197h1.93v-1.013c0-3.156 1.57-3.677 3.251-3.677a6.468 6.468 0 0 1 1.819.174v2.113c-.386-.116-.8-.145-1.213-.145-.689 0-1.267.261-1.267 1.274v1.274h2.204v2.026h-2.204V29.5h-2.59V19.223H132v-2.026zM139 17.157h1.96V13.5h2.632v3.657h2.38v2h-2.38v6.514c0 1.115.084 1.686 1.288 1.686.364.029.756-.028 1.12-.086v2.086c-.588 0-1.12.143-1.708.143-2.744 0-3.248-1.086-3.304-3.114v-7.229h-1.96v-2H139z"/>
    <path fill="var(--icon-fill_primary)" d="M15.317 29.902l14.966-16.488H16.207v-6.56h19.764C27.928-1.462 14.656-1.635 6.354 6.45s-8.503 21.38-.402 29.695c8.1 8.316 21.344 8.489 29.646.403l.402-.403H15.317v-6.244z"/>
    <path fill="var(--icon-fill_secondary)" d="M40.409 29.5c2.217-5.453 2.103-11.605-.256-17L25 29.5h15.409z"/>
  </symbol>

</svg>